<?xml version="1.0" standalone="no"?>
<!DOCTYPE svg PUBLIC "-//W3C//DTD SVG 20010904//EN"
 "http://www.w3.org/TR/2001/REC-SVG-20010904/DTD/svg10.dtd">
<svg version="1.0" xmlns="http://www.w3.org/2000/svg"
 width="138.000000pt" height="55.000000pt" viewBox="0 0 138.000000 55.000000"
 preserveAspectRatio="xMidYMid meet">
<metadata>
Created by potrace 1.13, written by Peter Selinger 2001-2015
</metadata>
<g transform="translate(0.000000,55.000000) scale(0.100000,-0.100000)"
fill="#000000" stroke="none">
<path d="M418 338 c-60 -28 -108 -54 -108 -58 0 -8 215 -110 231 -110 5 0 9
48 9 110 0 82 -3 110 -12 109 -7 0 -61 -23 -120 -51z"/>
<path d="M800 280 c0 -60 3 -110 8 -110 14 0 232 103 232 110 0 8 -215 110
-231 110 -5 0 -9 -48 -9 -110z"/>
</g>
</svg>
